<?xml version="1.0" encoding="utf-8"?>
<svg version="1.1" id="OBSVG" xmlns="http://www.w3.org/2000/svg" xmlns:xlink="http://www.w3.org/1999/xlink" x="0px" y="0px"
	 viewBox="0 0 22 18" style="enable-background:new 0 0 22 18;" xml:space="preserve">
<style type="text/css">
	.st0{fill:#6CB23F;}
</style>
<g transform="translate(2.5)">
	<g transform="translate(-2.268)">
		<path class="st0" d="M3.2,18v-7.4c0-0.2,0-0.2,0.2-0.4c2.4-2,4.9-4.2,7.5-6.4l0,0c0,0,5.1,4.4,7.5,6.5
			c0.2,0.2,0.2,0.2,0.2,0.4V18h-4.6v-3.4c0.1-1.7-1.2-3-2.9-3.1c-0.1,0-0.3,0-0.4,0c-1.6,0-2.9,1.3-2.9,2.8c0,0,0,0,0,0.1V18
			C6.1,18,4.6,18,3.2,18L3.2,18z M0.4,9.1c3.5-3.1,6.7-6,10.2-8.9L10.8,0c1.5,1.3,2.9,2.5,4.4,3.8V3.5c0-0.2,1.1-0.5,1.6-0.5
			c0.6,0,1.6,0.4,1.6,0.7v2.9c0,0.1,0.1,0.2,0.2,0.2c0,0,0,0,0,0c0.9,0.9,1.8,1.6,2.7,2.5c0.4,0.4,0.5,1,0.2,1.5
			c-0.4,0.4-1,0.4-1.5,0c-1.3-1.1-9.3-8.2-9.3-8.2s-6,5.5-8.9,8c0,0-1,0.7-1.7,0C-0.1,10.1,0,9.4,0.4,9.1z"/>
	</g>
	<path class="st0" d="M-2.5,9.8"/>
</g>
</svg>
