<?xml version="1.0" encoding="utf-8"?>
<svg version="1.1" id="OBSVG" xmlns="http://www.w3.org/2000/svg" xmlns:xlink="http://www.w3.org/1999/xlink" x="0px" y="0px"
	 viewBox="0 0 58.8 64.8" style="enable-background:new 0 0 58.8 64.8;" xml:space="preserve">
<style type="text/css">
	.st0{fill:#000000;}
</style>
<path class="st0" d="M17.3,2.4v14.9H2.4V2.4H17.3z M19.8,0H0v19.7h19.8V0z M16.3,7.1L14.2,5l-5.5,5.5L6,7.8L4,9.8l4.8,4.8L16.3,7.1z
	 M54.8,7.5h-31v-3h31V7.5z M44.5,14.4H23.8v-3h20.8V14.4z M17.3,24.9v14.9H2.4V24.9H17.3z M19.8,22.5H0v19.7h19.8V22.5z M16.3,29.6
	l-2.1-2.1L8.8,33L6,30.3L4,32.4l4.8,4.8L16.3,29.6z M54.8,30h-31v-3h31V30z M44.5,36.9H23.8v-3h20.8V36.9z M17.3,47.5v14.9H2.4V47.5
	H17.3z M19.8,45H0v19.7h19.8V45z M16.3,52.1l-2.1-2.1l-5.5,5.5L6,52.8L4,54.9l4.8,4.8L16.3,52.1z M54.8,52.5h-31v-3h31V52.5z
	 M44.5,59.5H23.8v-3h20.8V59.5z"/>
</svg>
