<?xml version="1.0" encoding="utf-8"?>
<svg version="1.1" id="OBSVG" xmlns="http://www.w3.org/2000/svg" xmlns:xlink="http://www.w3.org/1999/xlink" x="0px" y="0px"
	 viewBox="0 0 21 21" style="enable-background:new 0 0 21 21;" xml:space="preserve">
<style type="text/css">
	.st0{fill:#6CB23F;}
</style>
<path class="st0" d="M12.9,14.3l-3.7-3.7V5.7h2.2v4l3,3L12.9,14.3z M10.5,0C4.7,0,0,4.7,0,10.5S4.7,21,10.5,21
	S21,16.3,21,10.5S16.3,0,10.5,0z M10.5,18.4c-4.3,0-7.9-3.5-7.9-7.9s3.5-7.9,7.9-7.9c4.3,0,7.9,3.5,7.9,7.9
	C18.4,14.8,14.9,18.4,10.5,18.4C10.5,18.4,10.5,18.4,10.5,18.4z"/>
</svg>
