<?xml version="1.0" encoding="utf-8"?>
<svg version="1.1" id="OBSVG" xmlns="http://www.w3.org/2000/svg" xmlns:xlink="http://www.w3.org/1999/xlink" x="0px" y="0px"
	 viewBox="0 0 35 35" style="enable-background:new 0 0 35 35;" xml:space="preserve">
<style type="text/css">
	.st0{fill:#000000;}
</style>
<g>
	<path class="st0" d="M0,17.5C0,7.8,7.8,0,17.5,0S35,7.8,35,17.5S27.2,35,17.5,35l0,0C7.8,35,0,27.1,0,17.5z M17.5,32.3
		c8.2,0,14.8-6.6,14.8-14.8S25.7,2.7,17.5,2.7C9.3,2.7,2.7,9.3,2.7,17.5S9.3,32.3,17.5,32.3L17.5,32.3z"/>
	<path class="st0" d="M12.1,16.4V15l8.3-0.3V26c0,0.4,0.2,0.8,0.6,0.8c0.4,0.1,0.7,0.1,1.1,0.1c0.3,0,0.5,0,0.8,0v1.4H12.4v-1.4
		c0.1,0,0.2,0,0.3,0c0.5,0,0.9,0,1.4,0s1-0.4,1-0.9c0-0.1,0-0.1,0-0.2v-8.2c0-0.7-0.2-1-0.9-1.1c-0.6-0.1-1.1-0.1-1.7-0.1L12.1,16.4
		z"/>
	<path class="st0" d="M14.1,9.8c0-1.7,1.4-3,3.1-3s3,1.4,3,3.1s-1.4,3-3.1,3l0,0C15.5,12.8,14.1,11.4,14.1,9.8z"/>
</g>
</svg>
