<?xml version="1.0" encoding="utf-8"?>
<svg version="1.1" id="OBSVG" xmlns="http://www.w3.org/2000/svg" xmlns:xlink="http://www.w3.org/1999/xlink" x="0px" y="0px"
	 viewBox="0 0 111.1 160.1" style="enable-background:new 0 0 111.1 160.1;" xml:space="preserve">
<style type="text/css">
	.st0{fill:#E8E8E8;}
</style>
<path class="st0" d="M48.5,63.7c7.8,0,26.1-9.4,26.1-31.8c0-3.1-0.1-6.2-0.3-9c-0.4-5.6-1.6-10.6-4.4-14.4
	c-3.7-5.2-10.1-8.4-21.3-8.4c-11.2,0-17.6,3.2-21.3,8.4c-2.9,3.8-4,8.8-4.4,14.4c-0.3,2.9-0.3,5.9-0.3,9
	C22.4,54.3,40.7,63.7,48.5,63.7 M57,11.7c-0.8,1.9-1.1,2.9-1.9,4.8c-4.9-1.4-8.3-1.4-13.2,0c-0.8-1.9-1.1-2.9-1.9-4.8
	C46.1,9.9,50.8,9.9,57,11.7z M26.3,27c0.3,0.7,1.6,3.2,3.6,3.4c2.3,0.3,6-8,18.6-8.1c12.6,0,16.4,8.3,18.6,8.1
	c2-0.2,3.3-2.8,3.6-3.4c0.1,1.6,0.1,3.2,0.1,4.9c0,11-4.8,17.8-8.9,21.5c-5.1,4.7-10.8,6.5-13.4,6.5c-2.6,0-8.3-1.7-13.4-6.5
	c-4.1-3.8-8.9-10.6-8.9-21.5C26.2,30.2,26.2,28.6,26.3,27z"/>
<path class="st0" d="M40.3,110h0.1c0.6,0,0.9-0.3,1-0.3c0.1-0.2,0-0.5-0.2-0.7c-3.7-3.4-4.2-9.1-1-13c2.1-2.6,4.5-5,7.1-7
	c1.7-1.3,3.8-2,5.9-2c2.7,0,5.2,1.1,7.1,3.1c0,0,0.3,0.2,0.6,0.2c0.1,0,0.1,0,0.1,0c0.1-0.1,0.3-0.3,0.3-0.6c-0.2-5,3.6-9.3,8.5-9.8
	c3.3-0.4,6.6-0.4,9.9,0c5,0.6,8.7,5,8.4,10c0,0.2,0.1,0.4,0.3,0.6c0,0,0,0,0.1,0c0.3,0,0.6-0.1,0.6-0.2c1.5-1.6,3.5-2.7,5.8-3
	c-1.6-5.7-4-11.1-7.6-13.5C83.5,71,70.3,64,64.7,61l-0.1-0.1c-0.6-0.3-1.4-0.3-2,0.2c-3,2.3-6.2,3.9-9.6,4.6
	c-0.6,0.1-1.1,0.6-1.3,1.1l-3.2,8.3l-3.2-8.3c-0.2-0.6-0.7-1-1.3-1.1c-3.4-0.8-6.7-2.3-9.6-4.6c-0.6-0.5-1.4-0.5-2-0.2L32.3,61
	C26.6,64,13.4,71,9.7,73.7C4.1,77.5,1.4,88.2,0,96.6c-0.1,0.3,0,0.6,0.1,0.9c0.2,0.6,4.6,12,33.7,15C35.5,110.9,37.7,110,40.3,110"
	/>
<path class="st0" d="M110.9,119.5c-0.1-1-1.3-1.8-2.3-1.8c-3.3,0-6.3-2-7.6-5c-1.3-3.1-0.5-6.7,2-9c0.8-0.7,0.9-1.9,0.2-2.8
	c-1.7-2.2-3.7-4.1-5.8-5.8c-0.8-0.7-2.1-0.6-2.8,0.2c-2.2,2.4-6.1,3.3-9.1,2c-3.1-1.3-5.1-4.5-4.9-7.9c0.1-1.1-0.7-2-1.8-2.1
	c-2.7-0.3-5.5-0.3-8.2,0c-1.1,0.1-1.8,1-1.8,2.1c0.1,3.4-1.9,6.5-5,7.8c-3,1.2-6.9,0.3-9-2.1c-0.7-0.8-1.9-0.9-2.8-0.2
	c-2.2,1.7-4.2,3.7-5.9,5.8c-0.7,0.8-0.6,2.1,0.2,2.8c2.5,2.3,3.4,6,2,9.1c-1.3,3-4.4,4.9-8,4.9c-1.2,0-2,0.7-2.1,1.8
	c-0.3,2.7-0.3,5.5,0,8.3c0.1,1,1.3,1.8,2.4,1.8c3.2-0.1,6.2,1.9,7.5,5c1.3,3.1,0.5,6.7-2,9c-0.8,0.7-0.9,1.9-0.2,2.8
	c1.7,2.2,3.6,4.1,5.8,5.8c0.8,0.7,2.1,0.6,2.8-0.2c2.2-2.4,6.1-3.3,9.1-2c3.2,1.3,5.1,4.5,4.9,7.9c-0.1,1.1,0.7,2,1.8,2.1
	c1.4,0.2,2.8,0.2,4.2,0.2c1.3,0,2.7-0.1,4-0.2c1.1-0.1,1.8-1,1.8-2.1c-0.1-3.4,1.9-6.5,5-7.8c3-1.2,6.9-0.3,9.1,2.1
	c0.7,0.8,1.9,0.9,2.8,0.2c2.2-1.7,4.2-3.7,5.9-5.8c0.7-0.8,0.6-2.1-0.2-2.8c-2.5-2.3-3.4-6-2-9.1c1.2-3,4.2-5,7.5-5l0.5,0
	c1,0.1,2-0.7,2.1-1.8C111.2,125,111.2,122.2,110.9,119.5 M74.5,144.6c-11.6,0-21.1-9.4-21.1-21.1c0-11.6,9.4-21.1,21.1-21.1
	c11.6,0,21.1,9.4,21.1,21.1c0,4-1.1,7.6-3,10.8l-9.2-9.2c0.7-1.6,1-3.3,1-5c0-3.5-1.3-6.7-3.8-9.1c-2.4-2.4-5.7-3.8-9.1-3.8
	c-1.2,0-2.3,0.2-3.4,0.5c-0.5,0.1-0.9,0.5-1,1c-0.1,0.5,0,1,0.4,1.4c0,0,4.6,4.6,6.1,6.1c0.2,0.2,0.2,0.5,0.1,0.7l0,0.1
	c-0.2,1.7-0.5,3.7-0.7,4.5c0,0-0.1,0.1-0.1,0.1c0,0-0.1,0.1-0.1,0.1c-0.8,0.3-2.8,0.6-4.5,0.7l0,0l-0.1,0c0,0,0,0-0.1,0
	c-0.2,0-0.5-0.1-0.7-0.3c-1.6-1.6-6-5.9-6-5.9c-0.4-0.4-0.8-0.5-1.1-0.5c-0.6,0-1.2,0.5-1.4,1.1c-1.2,4.5,0.1,9.3,3.3,12.5
	c2.4,2.4,5.7,3.8,9.1,3.8c1.8,0,3.5-0.4,5-1l9.3,9.3C82.6,143.4,78.7,144.6,74.5,144.6z"/>
</svg>
