<?xml version="1.0" encoding="utf-8"?>
<svg version="1.1" id="OBSVG" xmlns="http://www.w3.org/2000/svg" xmlns:xlink="http://www.w3.org/1999/xlink" x="0px" y="0px"
	 viewBox="0 0 342.7 342.7" style="enable-background:new 0 0 342.7 342.7;" xml:space="preserve">
<style type="text/css">
	.st0{fill:#E2E2E2;}
</style>
<path class="st0" d="M341,110.4C224.7,159,233.7,293.9,230.6,309.4c-4.9,25-26.8,5.2-26.8,5.2s-62.7-61.7-67.9-67.9
	c-5.2-6.1-13.7,0.5-13.7,0.5L0,342.7l95.5-122.2c0,0,6.6-8.5,0.5-13.7c-6.1-5.2-67.9-67.9-67.9-67.9S8.3,117,33.3,112.1
	C48.8,109,183.7,118,232.3,1.7c0,0,3.7-6.6,16.5,6.2c17.5,17.4,43,43,43,43s25.6,25.6,43,43C347.6,106.8,341,110.4,341,110.4z"/>
</svg>
