<?xml version="1.0" encoding="utf-8"?>
<svg version="1.1" id="OBSVG" xmlns="http://www.w3.org/2000/svg" xmlns:xlink="http://www.w3.org/1999/xlink" x="0px" y="0px"
	 viewBox="0 0 17 17" style="enable-background:new 0 0 17 17;" xml:space="preserve">
<style type="text/css">
	.st0{fill:#000000;}
</style>
<g>
	<path class="st0" d="M16.9,14.6c0.2-0.3,0.1-0.7-0.1-0.9l-3.6-2.9c-0.1-0.1-0.3-0.2-0.4-0.2c-0.2,0-0.4,0.1-0.5,0.3l-0.8,0.8
		c-0.3,0.3-0.7,0.5-1.1,0.5c-0.4,0-0.9-0.2-1.2-0.5c-0.7-0.6-1.4-1.2-2-1.9c-0.7-0.6-1.3-1.3-1.9-2c-0.6-0.6-0.6-1.6,0-2.3L6,4.8
		c0.3-0.2,0.3-0.6,0.1-0.9L3.2,0.2C3.1,0.1,2.9,0,2.7,0C2.6,0,2.4,0,2.3,0.1L2.2,0.2L1.1,1.3L1,1.4c-0.7,0.9-1,2-0.9,3.2
		c1.1,2.7,2.8,5.1,4.8,7.2l0.4,0.4c2.1,2.1,4.5,3.7,7.2,4.8c0.2,0,0.4,0.1,0.5,0.1c0.9-0.1,1.9-0.4,2.6-1l0.1-0.1l1.1-1.2L16.9,14.6
		z"/>
</g>
</svg>
