<?xml version="1.0" encoding="utf-8"?>
<svg version="1.1" id="OBSVG" xmlns="http://www.w3.org/2000/svg" xmlns:xlink="http://www.w3.org/1999/xlink" x="0px" y="0px"
	 viewBox="0 0 58.8 64.8" style="enable-background:new 0 0 58.8 64.8;" xml:space="preserve">
<style type="text/css">
	.st0{fill:#000000;}
</style>
<path class="st0" d="M17.3,2.4v14.9H2.4V2.4H17.3z M19.8,0H0v19.7h19.8V0z M54.8,7.5h-31v-3h31V7.5z M44.5,14.4H23.8v-3h20.8
	L44.5,14.4L44.5,14.4z M17.3,24.9v14.9H2.4V24.9H17.3z M19.8,22.5H0v19.7h19.8V22.5z M54.8,30h-31v-3h31V30z M44.5,36.9H23.8v-3
	h20.8L44.5,36.9L44.5,36.9z M17.3,47.5v14.9H2.4V47.5H17.3z M19.8,45H0v19.7h19.8V45z M54.8,52.5h-31v-3h31V52.5z M44.5,59.5H23.8
	v-3h20.8L44.5,59.5L44.5,59.5z"/>
</svg>
