<?xml version="1.0" encoding="utf-8"?>
<svg version="1.1" id="OBSVG" xmlns="http://www.w3.org/2000/svg" xmlns:xlink="http://www.w3.org/1999/xlink" x="0px" y="0px"
	 viewBox="0 0 253.7 304.3" style="enable-background:new 0 0 253.7 304.3;" xml:space="preserve">
<style type="text/css">
	.st0{fill:#606060;}
</style>
<path class="st0" d="M228.7,0H25C11.2,0,0,11.2,0,25v254.3c0,13.8,11.2,25,25,25h203.7c13.8,0,25-11.2,25-25V25
	C253.7,11.2,242.5,0,228.7,0z M234.3,260.4c0,13.8-11.2,25-25,25h-165c-13.8,0-25-11.2-25-25V43.9c0-13.8,11.2-25,25-25h165
	c13.8,0,25,11.2,25,25V260.4z"/>
<rect x="67.3" y="60.9" class="st0" width="119" height="22.3"/>
<rect x="56" y="129.1" class="st0" width="89.3" height="22.3"/>
<rect x="56" y="179.4" class="st0" width="89.3" height="22.3"/>
<rect x="56" y="229.8" class="st0" width="89.3" height="22.3"/>
<rect x="173.7" y="129.1" class="st0" width="27.7" height="22.3"/>
<rect x="172.5" y="179.4" class="st0" width="27.7" height="22.3"/>
<rect x="172.5" y="229.8" class="st0" width="27.7" height="22.3"/>
</svg>
