<?xml version="1.0" encoding="utf-8"?>
<svg version="1.1" id="OBSVG" xmlns="http://www.w3.org/2000/svg" xmlns:xlink="http://www.w3.org/1999/xlink" x="0px" y="0px"
	 viewBox="0 0 13 17" style="enable-background:new 0 0 13 17;" xml:space="preserve">
<style type="text/css">
	.st0{fill:#6CB23F;}
</style>
<g>
	<path class="st0" d="M6.5,0C2.9,0,0,2.8,0,6.4c0,4.9,6,10.3,6.3,10.5C6.3,17,6.4,17,6.5,17s0.2,0,0.2-0.1C7,16.7,13,11.3,13,6.4
		C13,2.8,10.1,0,6.5,0z M6.6,9.3C5,9.4,3.7,8,3.6,6.4c-0.1-1.6,1.3-3,2.9-3c1.7,0,3,1.3,3,2.9C9.5,7.9,8.2,9.3,6.6,9.3z"/>
</g>
</svg>
