<?xml version="1.0" encoding="utf-8"?>
<svg version="1.1" id="OBSVG" xmlns="http://www.w3.org/2000/svg" xmlns:xlink="http://www.w3.org/1999/xlink" x="0px" y="0px"
	 viewBox="0 0 670.4 158.2" enable-background="new 0 0 670.4 158.2" xml:space="preserve">
<style type="text/css">
	.st0{fill:#FFFFFF;}
</style>
<path class="st0" d="M105.1,65.3c9.1,0,16.8,3.1,23.2,9.3c6.3,6.2,9.4,13.9,9.4,22.9c0,9.2-3.2,16.8-9.5,23
	c-6.4,6.1-14.2,9.2-23.4,9.2c-1.2,0-2.4-0.1-3.5-0.2v-12.7c1.2,0.2,2.4,0.3,3.7,0.3c5.5,0,9.9-1.8,13.2-5.3c3.3-3.6,5-8.3,5-14.2
	c0-5.9-1.7-10.7-5-14.2c-3.3-3.6-7.8-5.4-13.2-5.4c-5.4,0-9.8,1.8-13.1,5.4c-3.1,3.3-4.7,7.4-5,12.5l-0.1,38.5l0.1,23.8H72.6V97.1
	v-1.2c0.3-8.3,3.4-15.4,9.5-21.3C88.4,68.4,96.1,65.3,105.1,65.3"/>
<path class="st0" d="M178,65.3c9.1,0,16.8,3.1,23.2,9.3c6.3,6.2,9.4,13.9,9.4,22.9c0,1.8-0.1,3.6-0.4,5.3h-4.3h-10.2h-22v-12
	h21.7c-0.8-2.9-2.2-5.4-4.1-7.5c-3.3-3.6-7.8-5.4-13.2-5.4s-9.8,1.8-13.1,5.4s-5,8.2-5,13.9c0,6.1,1.6,10.9,4.9,14.5
	c3.3,3.6,7.8,5.4,13.2,5.4c5.5,0,9.9-1.8,13.2-5.3c0.8-0.9,1.5-1.8,2.1-2.8l13.4,4.2c-1.5,2.6-3.3,5.1-5.6,7.3
	c-6.4,6.1-14.2,9.2-23.4,9.2s-16.8-3.1-23-9.4c-6.2-6.2-9.3-14-9.3-23.3c0-8.8,3.2-16.3,9.5-22.5C161.3,68.4,168.9,65.3,178,65.3"/>
<path class="st0" d="M250.9,65.3c9.1,0,16.8,3.1,23.2,9.3c6.3,6.2,9.4,13.9,9.4,22.9v31.3h-14.4v-4.3V97.4
	c-0.1-5.8-1.7-10.4-5-13.9c-3.3-3.6-7.8-5.4-13.2-5.4c-5.4,0-9.8,1.8-13.1,5.4s-5,8.2-5,13.9v27.3v4.2h-14.4V97.4
	c0-9.1,3.1-16.6,9.5-22.8C234.1,68.4,241.8,65.3,250.9,65.3"/>
<path class="st0" d="M305.7,36.9l-0.1,23.8l0.1,38.5c0.3,5,1.9,9.2,5,12.5c3.3,3.6,7.7,5.4,13.1,5.4c5.5,0,9.9-1.8,13.2-5.4
	c3.3-3.6,5-8.3,5-14.2c0-5.9-1.7-10.7-5-14.2c-3.3-3.6-7.7-5.3-13.2-5.3c-1.3,0-2.6,0.1-3.7,0.3V65.4c1.1-0.1,2.3-0.2,3.5-0.2
	c9.2,0,17,3.1,23.4,9.2c6.3,6.2,9.5,13.9,9.5,23s-3.1,16.7-9.4,23c-6.4,6.2-14.1,9.3-23.2,9.3s-16.8-3.1-23.1-9.3
	c-6-5.9-9.2-13-9.5-21.3v-1.2V36.8h14.4"/>
<path class="st0" d="M305.7,36.9l-0.1,23.8l0.1,38.5c0.3,5,1.9,9.2,5,12.5c3.3,3.6,7.7,5.4,13.1,5.4c5.5,0,9.9-1.8,13.2-5.4
	c3.3-3.6,5-8.3,5-14.2c0-5.9-1.7-10.7-5-14.2c-3.3-3.6-7.7-5.3-13.2-5.3c-1.3,0-2.6,0.1-3.7,0.3V65.4c1.1-0.1,2.3-0.2,3.5-0.2
	c9.2,0,17,3.1,23.4,9.2c6.3,6.2,9.5,13.9,9.5,23s-3.1,16.7-9.4,23c-6.4,6.2-14.1,9.3-23.2,9.3s-16.8-3.1-23.1-9.3
	c-6-5.9-9.2-13-9.5-21.3v-1.2V36.8h14.4"/>
<path class="st0" d="M430.8,65.3c9.1,0,16.8,3.1,23.1,9.3c6,5.9,9.2,13,9.5,21.3v1.2v31.8H449v-33c-0.3-5-1.9-9.2-5-12.5
	c-3.3-3.6-7.7-5.4-13.1-5.4c-5.5,0-9.9,1.8-13.2,5.4c-3.3,3.6-5,8.3-5,14.2c0,5.9,1.7,10.7,5,14.2c3.3,3.6,7.7,5.3,13.2,5.3
	c1.3,0,2.6-0.1,3.7-0.3v12.7c-1.1,0.1-2.3,0.2-3.5,0.2c-9.2,0-17-3.1-23.4-9.2c-6.3-6.2-9.5-13.9-9.5-23s3.1-16.7,9.4-22.9
	C413.9,68.4,421.6,65.3,430.8,65.3"/>
<path class="st0" d="M430.8,65.3c9.1,0,16.8,3.1,23.1,9.3c6,5.9,9.2,13,9.5,21.3v1.2v31.8H449v-33c-0.3-5-1.9-9.2-5-12.5
	c-3.3-3.6-7.7-5.4-13.1-5.4c-5.5,0-9.9,1.8-13.2,5.4c-3.3,3.6-5,8.3-5,14.2c0,5.9,1.7,10.7,5,14.2c3.3,3.6,7.7,5.3,13.2,5.3
	c1.3,0,2.6-0.1,3.7-0.3v12.7c-1.1,0.1-2.3,0.2-3.5,0.2c-9.2,0-17-3.1-23.4-9.2c-6.3-6.2-9.5-13.9-9.5-23s3.1-16.7,9.4-22.9
	C413.9,68.4,421.6,65.3,430.8,65.3"/>
<path class="st0" d="M396.4,65.3l0.1,12.7l0,0c-5.5,0-9.9,1.8-13.2,5.4c-3.3,3.6-5,8.2-5,13.9v27.3v4.2h-14.4V97.4
	c0-9.1,3.1-16.6,9.5-22.8C379.6,68.4,387.3,65.3,396.4,65.3"/>
<path class="st0" d="M396.4,65.3l0.1,12.7l0,0c-5.5,0-9.9,1.8-13.2,5.4c-3.3,3.6-5,8.2-5,13.9v27.3v4.2h-14.4V97.4
	c0-9.1,3.1-16.6,9.5-22.8C379.6,68.4,387.3,65.3,396.4,65.3"/>
<path class="st0" d="M530.4,66.2v31.3c0,9.1-3.1,16.7-9.4,23c-6.4,6.2-14.1,8.5-23.2,8.5s-23.7,0-23.7,0V66.2h14.4v4.2V117
	c0,0,3.9,0,9.3,0c5.5,0,9.9-1.8,13.2-5.4c3.2-3.5,4.9-8.1,5-13.9V70.5v-4.3H530.4"/>
<path class="st0" d="M530.4,66.2v31.3c0,9.1-3.1,16.7-9.4,23c-6.4,6.2-14.1,8.5-23.2,8.5s-23.7,0-23.7,0V66.2h14.4v4.2V117
	c0,0,3.9,0,9.3,0c5.5,0,9.9-1.8,13.2-5.4c3.2-3.5,4.9-8.1,5-13.9V70.5v-4.3H530.4"/>
<path class="st0" d="M32.4,65.2c17.9,0,32.4,14.5,32.4,32.4S50.3,130,32.4,130C14.5,129.9,0,115.4,0,97.5
	c0-10.8,5.3-20.3,13.3-26.2v25.1c0,0.3,0,0.7,0,1.1s0,0.8,0,1.2c0.6,10,8.9,17.9,19.1,17.9c10.5,0,19.1-8.5,19.1-19.1
	S43,78.4,32.4,78.4c-2.1,0-4.1,0.3-6,1V65.7C28.3,65.3,30.3,65.2,32.4,65.2"/>
<path class="st0" d="M571.1,65.2c17.9,0,32.4,14.5,32.4,32.4S589,130,571.1,130s-32.4-14.5-32.4-32.4c0-10.8,5.2-20.3,13.3-26.2
	v25.1c0,0.3,0,0.7,0,1.1s0,0.8,0,1.2c0.6,10,8.9,17.9,19.1,17.9c10.5,0,19.1-8.5,19.1-19.1s-8.5-19.1-19.1-19.1c-2.1,0-4.1,0.3-6,1
	V65.7C567.1,65.3,569.1,65.2,571.1,65.2"/>
<path class="st0" d="M637.9,0c18,0,32.5,14.6,32.5,32.5c0,18-14.6,32.5-32.5,32.5c-18,0-32.5-14.6-32.5-32.5
	c0-11,5.4-20.7,13.7-26.6v26.7v0.7c0.2,4.8,2,8.9,5.5,12.3c3.7,3.6,8.1,5.4,13.4,5.4c5.3,0,9.8-1.8,13.4-5.4c3.6-3.6,5.4-8,5.4-13.3
	s-1.8-9.7-5.5-13.3s-8.2-5.3-13.5-5.3c-0.7,0-1.4,0-2,0.1v7.4c0.7-0.1,1.4-0.2,2.2-0.2c3.2,0,5.7,1,7.7,3.1c1.9,2.1,2.9,4.8,2.9,8.2
	c0,3.4-1,6.2-2.9,8.2c-1.9,2.1-4.5,3.1-7.7,3.1c-3.1,0-5.6-1-7.6-3.1c-1.8-1.9-2.7-4.3-2.9-7.2L627.4,11V1.6
	C630.7,0.6,634.2,0,637.9,0"/>
</svg>
